<?xml version="1.0" encoding="utf-8"?>
<!-- Generator: Adobe Illustrator 16.0.0, SVG Export Plug-In . SVG Version: 6.00 Build 0)  -->
<!DOCTYPE svg PUBLIC "-//W3C//DTD SVG 1.1//EN" "http://www.w3.org/Graphics/SVG/1.1/DTD/svg11.dtd">
<svg version="1.1" id="Capa_1" xmlns="http://www.w3.org/2000/svg" xmlns:xlink="http://www.w3.org/1999/xlink" x="0px" y="0px"
	 width="150px" height="150px" viewBox="0 0 150 150" enable-background="new 0 0 150 150" xml:space="preserve">
<g opacity="0.2">
	<g>
		<path d="M75,150c-6.9,0-13.55-0.9-19.95-2.7c-6.399-1.801-12.375-4.325-17.925-7.575s-10.6-7.147-15.15-11.699
			c-4.55-4.549-8.449-9.601-11.699-15.148C7.025,107.325,4.5,101.352,2.7,94.95C0.9,88.55,0,81.9,0,75c0-6.9,0.9-13.55,2.7-19.95
			c1.8-6.4,4.325-12.375,7.575-17.925s7.149-10.6,11.699-15.15c4.551-4.55,9.601-8.45,15.15-11.7S48.65,4.5,55.05,2.7
			C61.45,0.9,68.1,0,75,0c10.3,0,20.025,1.975,29.175,5.925c9.15,3.95,17.101,9.3,23.851,16.05s12.102,14.7,16.052,23.85
			C148.025,54.975,150,64.7,150,75c0,6.9-0.9,13.55-2.7,19.95c-1.801,6.399-4.325,12.374-7.575,17.925
			c-3.25,5.55-7.147,10.6-11.699,15.15c-4.549,4.55-9.601,8.449-15.148,11.699c-5.551,3.25-11.523,5.773-17.926,7.573
			C88.55,149.1,81.9,150,75,150z M111.15,44.1H40.05c-0.7,0-1.3,0.225-1.8,0.675c-0.5,0.45-0.75,1.075-0.75,1.875v7.95
			c0,0.4,0.15,0.6,0.45,0.6L75.3,76.5l0.302,0.15c0.198,0,0.352-0.051,0.449-0.15l36.15-21.3c0.199-0.1,0.35-0.15,0.449-0.15
			c0.099,0,0.25-0.05,0.449-0.15c0.399,0,0.602-0.2,0.602-0.6v-7.65c0-0.8-0.25-1.425-0.751-1.875
			C112.449,44.325,111.85,44.1,111.15,44.1z M60.15,76.05c0.1-0.1,0.149-0.25,0.149-0.45c0-0.3-0.1-0.45-0.3-0.45l-21.45-12.3
			c-0.3-0.1-0.55-0.1-0.75,0c-0.2,0-0.3,0.15-0.3,0.45v32.25c0,0.302,0.15,0.5,0.45,0.601h0.3c0.2,0,0.3-0.051,0.3-0.148
			L60.15,76.05z M86.25,78.45c-0.1-0.302-0.352-0.351-0.751-0.15l-8.25,4.8c-1,0.603-2.049,0.603-3.149,0l-7.201-4.049
			c-0.299-0.199-0.549-0.199-0.75,0l-27.449,25.5c-0.1,0.1-0.15,0.301-0.15,0.6c0,0.102,0.1,0.25,0.301,0.449
			c0.6,0.2,1,0.301,1.199,0.301H110.4c0.201,0,0.4-0.1,0.602-0.301c0-0.397-0.051-0.646-0.15-0.75L86.25,78.45z M113.25,62.25h-0.6
			L92.251,74.4c-0.2,0-0.3,0.15-0.3,0.45c-0.102,0.1-0.051,0.25,0.148,0.449l20.398,22.051c0.2,0.199,0.352,0.301,0.45,0.301h0.3
			c0.301-0.301,0.451-0.5,0.451-0.601v-34.2C113.7,62.65,113.55,62.45,113.25,62.25z"/>
	</g>
</g>
</svg>
