<?xml version="1.0" encoding="utf-8"?>
<!-- Generator: Adobe Illustrator 16.0.0, SVG Export Plug-In . SVG Version: 6.00 Build 0)  -->
<!DOCTYPE svg PUBLIC "-//W3C//DTD SVG 1.1//EN" "http://www.w3.org/Graphics/SVG/1.1/DTD/svg11.dtd">
<svg version="1.1" id="Capa_1" xmlns="http://www.w3.org/2000/svg" xmlns:xlink="http://www.w3.org/1999/xlink" x="0px" y="0px"
	 width="438.546px" height="427.818px" viewBox="0 0 438.546 427.818" enable-background="new 0 0 438.546 427.818"
	 xml:space="preserve">
<g opacity="0.2">
	<path d="M409.132,109.208c-19.605-33.596-46.205-60.194-79.799-79.8C295.736,9.801,259.059,0,219.272,0
		C179.491,0,142.8,9.804,109.209,29.408c-33.596,19.605-60.192,46.204-79.8,79.8C9.804,142.803,0.001,179.489,0.001,219.265
		c0,47.78,13.94,90.745,41.827,128.906c27.884,38.164,63.906,64.572,108.063,79.228c5.14,0.953,8.945,0.282,11.419-1.996
		c2.475-2.28,3.711-5.14,3.711-8.562c0-0.571-0.049-5.708-0.144-15.417c-0.098-9.709-0.144-18.18-0.144-25.406l-6.567,1.137
		c-4.187,0.769-9.469,1.093-15.846,1c-6.374-0.09-12.991-0.758-19.842-2c-6.854-1.229-13.229-4.086-19.13-8.559
		c-5.898-4.473-10.085-10.328-12.56-17.557l-2.855-6.569c-1.903-4.374-4.899-9.233-8.992-14.56
		c-4.093-5.33-8.232-8.944-12.419-10.85l-1.999-1.431c-1.332-0.95-2.568-2.098-3.711-3.43c-1.142-1.33-1.997-2.662-2.568-3.996
		c-0.572-1.336-0.098-2.433,1.427-3.289c1.525-0.858,4.281-1.276,8.28-1.276l5.708,0.854c3.807,0.763,8.516,3.041,14.133,6.851
		c5.614,3.807,10.229,8.754,13.846,14.842c4.38,7.809,9.657,13.756,15.846,17.85c6.184,4.093,12.419,6.136,18.699,6.136
		c6.28,0,11.704-0.478,16.274-1.423c4.565-0.952,8.848-2.385,12.847-4.285c1.713-12.758,6.377-22.561,13.988-29.41
		c-10.848-1.141-20.601-2.857-29.264-5.141c-8.658-2.285-17.605-5.996-26.835-11.141c-9.235-5.138-16.896-11.517-22.985-19.127
		c-6.09-7.613-11.088-17.609-14.987-29.979c-3.901-12.372-5.852-26.646-5.852-42.824c0-23.035,7.52-42.637,22.557-58.817
		c-7.044-17.318-6.379-36.732,1.997-58.24c5.52-1.715,13.706-0.428,24.554,3.853c10.85,4.283,18.794,7.952,23.84,10.994
		c5.046,3.041,9.089,5.618,12.135,7.708c17.705-4.947,35.976-7.421,54.818-7.421c18.841,0,37.117,2.474,54.821,7.421l10.851-6.849
		c7.421-4.57,16.183-8.758,26.265-12.565c10.088-3.805,17.801-4.853,23.133-3.138c8.562,21.509,9.326,40.922,2.279,58.24
		c15.035,16.18,22.559,35.787,22.559,58.817c0,16.179-1.957,30.497-5.852,42.966c-3.9,12.474-8.941,22.457-15.125,29.979
		c-6.191,7.521-13.902,13.851-23.133,18.985c-9.23,5.142-18.183,8.852-26.841,11.138c-8.662,2.284-18.414,4.004-29.265,5.146
		c9.896,8.562,14.845,22.077,14.845,40.539v60.237c0,3.422,1.188,6.277,3.569,8.562c2.379,2.278,6.138,2.949,11.276,1.994
		c44.163-14.651,80.185-41.062,108.067-79.227c27.879-38.16,41.824-81.127,41.824-128.905
		C438.539,179.486,428.728,142.803,409.132,109.208z"/>
</g>
</svg>
