<?xml version="1.0" encoding="utf-8"?>
<!-- Generator: Adobe Illustrator 16.0.0, SVG Export Plug-In . SVG Version: 6.00 Build 0)  -->
<!DOCTYPE svg PUBLIC "-//W3C//DTD SVG 1.1//EN" "http://www.w3.org/Graphics/SVG/1.1/DTD/svg11.dtd">
<svg version="1.1" id="Layer_1" xmlns="http://www.w3.org/2000/svg" xmlns:xlink="http://www.w3.org/1999/xlink" x="0px" y="0px"
	 width="272.5px" height="89.834px" viewBox="0 0 272.5 89.834" enable-background="new 0 0 272.5 89.834" xml:space="preserve">
<g enable-background="new    ">
	<path fill="#FFFFFF" d="M58.585,28.556v31.61H42.126V28.12c0-4.649-0.708-8.066-2.125-10.246s-3.706-3.27-6.867-3.27
		c-3.161,0-5.959,1.182-8.393,3.542c-2.436,2.362-3.652,5.831-3.652,10.409v31.61H4.739V1.524h16.35v6.648
		c4.505-5.085,9.664-7.63,15.478-7.63c3.706,0,7.066,1.09,10.083,3.271c3.015,2.18,5.287,4.833,6.812,7.956
		c2.251-3.559,5.287-6.321,9.102-8.283s7.647-2.943,11.5-2.943c6.903,0,12.462,2.054,16.677,6.158
		c4.213,4.106,6.322,10.047,6.322,17.822v35.643H80.603V28.12c0-9.01-3.308-13.516-9.919-13.516c-3.27,0-6.104,1.182-8.502,3.542
		C59.784,20.509,58.585,23.978,58.585,28.556z"/>
	<path fill="#FFFFFF" d="M140.006,46.541c5.451,0,10.355-2.725,14.716-8.175l9.7,10.899c-7.558,7.849-15.732,11.772-24.524,11.772
		c-8.793,0-16.224-2.779-22.291-8.339c-6.068-5.559-9.102-12.824-9.102-21.8c0-8.974,3.069-16.276,9.21-21.909
		c6.14-5.63,13.424-8.447,21.854-8.447c4.214,0,8.483,0.872,12.808,2.616c4.323,1.744,8.12,4.324,11.391,7.739l-8.502,11.117
		c-1.891-2.251-4.196-3.995-6.921-5.231c-2.726-1.235-5.434-1.854-8.121-1.854c-4.289,0-7.976,1.4-11.063,4.197
		c-3.089,2.798-4.633,6.687-4.633,11.662c0,4.979,1.543,8.849,4.633,11.609C132.249,45.161,135.865,46.541,140.006,46.541z"/>
	<path fill="#FFFFFF" d="M229.167,28.556v31.61h-16.459V28.12c0-4.649-0.708-8.066-2.126-10.246c-1.416-2.18-3.705-3.27-6.867-3.27
		c-3.16,0-5.959,1.182-8.393,3.542c-2.436,2.362-3.651,5.831-3.651,10.409v31.61H175.32V1.524h16.351v6.648
		c4.505-5.085,9.663-7.63,15.478-7.63c3.707,0,7.066,1.09,10.083,3.271c3.015,2.18,5.286,4.833,6.812,7.956
		c2.252-3.559,5.286-6.321,9.102-8.283s7.647-2.943,11.5-2.943c6.902,0,12.461,2.054,16.677,6.158
		c4.213,4.106,6.321,10.047,6.321,17.822v35.643h-16.459V28.12c0-9.01-3.307-13.516-9.919-13.516c-3.27,0-6.104,1.182-8.502,3.542
		C230.366,20.509,229.167,23.978,229.167,28.556z"/>
</g>
<rect y="72.5" fill="#FFFFFF" width="274" height="17.334"/>
</svg>
