<?xml version="1.0" encoding="utf-8"?>
<!-- Generator: Adobe Illustrator 16.0.0, SVG Export Plug-In . SVG Version: 6.00 Build 0)  -->
<!DOCTYPE svg PUBLIC "-//W3C//DTD SVG 1.1//EN" "http://www.w3.org/Graphics/SVG/1.1/DTD/svg11.dtd">
<svg version="1.1" id="Layer_1" xmlns="http://www.w3.org/2000/svg" xmlns:xlink="http://www.w3.org/1999/xlink" x="0px" y="0px"
	 width="450px" height="450px" viewBox="0 0 450 450" enable-background="new 0 0 450 450" xml:space="preserve">
<g>
	<path fill-rule="evenodd" clip-rule="evenodd" d="M282.168,122.076c-3.784,17.708-8.285,39.117-12.938,60.495
		c-10.75,49.37-21.385,98.769-32.562,148.042c-1.659,7.32-4.873,14.89-9.366,20.836c-8.665,11.472-23.494,14.565-35.394,9.037
		c-12.12-5.631-19.553-19.724-16.625-33.756c7.776-37.261,16-74.43,24.112-111.621c7.107-32.584,14.156-65.178,21.597-97.685
		c1.322-5.78,3.624-11.684,6.876-16.601c7.891-11.927,22.216-16.693,34.477-12.455C274.678,92.629,282.218,103.98,282.168,122.076z"
		/>
	<path fill-rule="evenodd" clip-rule="evenodd" d="M74.964,214.539c17.727,18.509,33.469,35.219,49.521,51.627
		c15.903,16.256,18.409,35.758,5.783,48.292c-12.744,12.65-32.859,10.837-48.639-4.59c-22.455-21.951-44.87-43.941-67.169-66.05
		c-18.246-18.087-18.33-35.691-0.227-53.66c22.527-22.358,44.968-44.814,68.046-66.594c5.636-5.317,13.176-9.765,20.608-11.776
		c13.05-3.529,25.097,2.314,31.476,12.833c6.623,10.92,5.584,25.943-4.332,36.581c-14.26,15.296-29.456,29.726-44.39,44.387
		C82.067,209.098,77.953,212.057,74.964,214.539z"/>
	<path fill-rule="evenodd" clip-rule="evenodd" d="M374.571,218.554c-16.656-17.328-32.358-33.542-47.894-49.915
		c-3.92-4.131-7.916-8.41-10.807-13.256c-6.685-11.208-5.556-24.829,2.079-34.124c7.631-9.297,20.941-13.278,33.075-8.541
		c6.091,2.378,12.019,6.284,16.751,10.822c22.668,21.728,44.951,43.856,67.274,65.942c19.08,18.876,18.98,36.027-0.312,55.1
		c-22.094,21.84-44.259,43.601-66.49,65.3c-3.112,3.041-6.499,5.981-10.221,8.191c-13.528,8.019-30.501,5.679-39.771-5.138
		c-9.274-10.821-9.433-28.353,1.275-39.928c14.435-15.595,29.943-30.196,45.042-45.173
		C367.922,224.511,371.49,221.404,374.571,218.554z"/>
</g>
</svg>
