<?xml version="1.0" encoding="utf-8"?>
<!-- Generator: Adobe Illustrator 16.0.0, SVG Export Plug-In . SVG Version: 6.00 Build 0)  -->
<!DOCTYPE svg PUBLIC "-//W3C//DTD SVG 1.1//EN" "http://www.w3.org/Graphics/SVG/1.1/DTD/svg11.dtd">
<svg version="1.1" id="Layer_1" xmlns="http://www.w3.org/2000/svg" xmlns:xlink="http://www.w3.org/1999/xlink" x="0px" y="0px"
	 width="221.234px" height="221.23px" viewBox="0 0 221.234 221.23" enable-background="new 0 0 221.234 221.23"
	 xml:space="preserve">
<g>
	<path fill-rule="evenodd" clip-rule="evenodd" d="M138.816,59.853c-1.866,8.733-4.086,19.292-6.381,29.836
		c-5.302,24.35-10.547,48.713-16.06,73.015c-0.818,3.61-2.403,7.344-4.619,10.276c-4.273,5.658-11.587,7.184-17.457,4.457
		c-5.978-2.777-9.644-9.728-8.199-16.648c3.835-18.377,7.892-36.709,11.892-55.052c3.505-16.07,6.982-32.146,10.651-48.178
		c0.652-2.851,1.787-5.762,3.392-8.188c3.892-5.882,10.957-8.233,17.004-6.143C135.122,45.33,138.84,50.928,138.816,59.853z"/>
	<path fill-rule="evenodd" clip-rule="evenodd" d="M36.622,105.456c8.743,9.129,16.507,17.37,24.424,25.463
		c7.843,8.018,9.079,17.636,2.852,23.817c-6.286,6.239-16.206,5.345-23.989-2.264C28.835,141.646,17.78,130.8,6.782,119.896
		c-8.999-8.92-9.04-17.603-0.112-26.465C17.78,82.404,28.848,71.328,40.23,60.586c2.78-2.623,6.499-4.816,10.164-5.808
		c6.437-1.741,12.378,1.142,15.524,6.33c3.266,5.386,2.754,12.795-2.137,18.042c-7.033,7.544-14.528,14.661-21.893,21.892
		C40.125,102.772,38.096,104.231,36.622,105.456z"/>
	<path fill-rule="evenodd" clip-rule="evenodd" d="M184.389,107.436c-8.215-8.546-15.959-16.543-23.621-24.618
		c-1.934-2.038-3.904-4.148-5.33-6.538c-3.297-5.528-2.74-12.246,1.025-16.83c3.764-4.585,10.328-6.549,16.312-4.212
		c3.004,1.173,5.928,3.099,8.262,5.337c11.18,10.716,22.17,21.63,33.18,32.523c9.41,9.31,9.361,17.769-0.154,27.175
		c-10.896,10.771-21.828,21.504-32.793,32.206c-1.535,1.5-3.205,2.95-5.041,4.04c-6.672,3.955-15.043,2.801-19.615-2.534
		c-4.574-5.337-4.652-13.983,0.629-19.692c7.119-7.691,14.768-14.893,22.215-22.279C181.11,110.374,182.87,108.842,184.389,107.436z
		"/>
</g>
</svg>
