<?xml version="1.0" encoding="utf-8"?>
<!-- Generator: Adobe Illustrator 16.0.0, SVG Export Plug-In . SVG Version: 6.00 Build 0)  -->
<!DOCTYPE svg PUBLIC "-//W3C//DTD SVG 1.1//EN" "http://www.w3.org/Graphics/SVG/1.1/DTD/svg11.dtd">
<svg version="1.1" id="Capa_1" xmlns="http://www.w3.org/2000/svg" xmlns:xlink="http://www.w3.org/1999/xlink" x="0px" y="0px"
	 width="141.25px" height="141.25px" viewBox="1.5 7.25 141.25 141.25" enable-background="new 1.5 7.25 141.25 141.25"
	 xml:space="preserve">
<g opacity="0.2">
	<g>
		<path d="M72.125,7.25C33.122,7.25,1.5,38.872,1.5,77.875S33.122,148.5,72.125,148.5s70.625-31.622,70.625-70.625
			C142.75,38.864,111.128,7.25,72.125,7.25z M107.261,62.02l0.054,2.251c0,22.988-17.488,49.474-49.474,49.474
			c-9.817,0-18.954-2.879-26.653-7.814c1.361,0.16,2.747,0.248,4.149,0.248c8.148,0,15.644-2.78,21.595-7.442
			c-7.61-0.138-14.028-5.171-16.243-12.074c1.067,0.203,2.145,0.298,3.274,0.298c1.59,0,3.125-0.203,4.582-0.6
			c-7.954-1.607-13.948-8.626-13.948-17.048v-0.221c2.349,1.308,5.023,2.083,7.875,2.182c-4.66-3.12-7.734-8.44-7.734-14.47
			c0-3.186,0.857-6.17,2.349-8.74c8.573,10.523,21.391,17.445,35.842,18.168c-0.3-1.271-0.452-2.604-0.452-3.963
			c0-9.596,7.788-17.382,17.391-17.382c4.999,0,9.517,2.111,12.694,5.491c3.953-0.786,7.681-2.234,11.045-4.22
			c-1.299,4.061-4.052,7.468-7.645,9.623c3.507-0.415,6.869-1.36,9.985-2.737C113.617,56.52,110.66,59.583,107.261,62.02z"/>
	</g>
</g>
</svg>
